<svg width="22" height="22" viewBox="0 0 22 22" fill="none" xmlns="http://www.w3.org/2000/svg">
<path d="M16.5 0C14.55 0 12.45 0.516701 11 1.93763C9.55 0.516701 7.45 0 5.5 0C4.05 0 2.51 0.284185 1.22 1.02048C0.49 1.44676 0 2.36391 0 3.41023V17.9812C0 19.6605 1.22 20.9006 2.48 20.4872C3.46 20.1643 4.5 20.0222 5.5 20.0222C7.06 20.0222 8.72 20.358 10.06 21.2106C10.66 21.5981 11.34 21.5981 11.93 21.2106C13.27 20.3451 14.93 20.0222 16.49 20.0222C17.49 20.0222 18.53 20.1643 19.51 20.4872C20.77 20.9135 21.99 19.6734 21.99 17.9812V3.41023C21.99 2.36391 21.5 1.44676 20.77 1.02048C19.49 0.284185 17.95 0 16.5 0ZM20 16.444C20 17.2578 19.42 17.852 18.8 17.7099C18.05 17.5291 17.27 17.4516 16.5 17.4516C14.8 17.4516 12.35 18.2912 11 19.3892V4.52113C12.35 3.42314 14.8 2.5835 16.5 2.5835C17.42 2.5835 18.33 2.69976 19.2 2.9452C19.66 3.07437 20 3.60399 20 4.21111V16.444Z" fill="#40CEED"/>
<path d="M12.98 8.40601C12.66 8.40601 12.37 8.14791 12.27 7.73496C12.14 7.23168 12.36 6.67678 12.75 6.52192C14.29 5.87669 16.28 5.67021 18.11 5.94121C18.52 6.00573 18.82 6.48321 18.77 7.0123C18.72 7.54139 18.35 7.92853 17.94 7.86401C16.32 7.61882 14.55 7.81239 13.21 8.36729C13.13 8.3802 13.05 8.40601 12.98 8.40601Z" fill="#40CEED"/>
<path d="M12.98 11.8418C12.66 11.8418 12.37 11.5838 12.27 11.1709C12.14 10.6677 12.36 10.1129 12.75 9.95807C14.28 9.31295 16.28 9.10652 18.11 9.37747C18.52 9.44198 18.82 9.91936 18.77 10.4484C18.72 10.9773 18.35 11.3644 17.94 11.2999C16.32 11.0548 14.55 11.2483 13.21 11.8031C13.13 11.8289 13.05 11.8418 12.98 11.8418Z" fill="#40CEED"/>
<path d="M12.98 15.2783C12.66 15.2783 12.37 15.0202 12.27 14.6072C12.14 14.1039 12.36 13.5489 12.75 13.3941C14.28 12.7488 16.28 12.5423 18.11 12.8133C18.52 12.8778 18.82 13.3553 18.77 13.8845C18.72 14.4136 18.35 14.7879 17.94 14.7363C16.32 14.4911 14.55 14.6846 13.21 15.2396C13.13 15.2654 13.05 15.2783 12.98 15.2783Z" fill="#40CEED"/>
</svg>
