<svg width="114" height="37" viewBox="0 0 114 37" fill="none" xmlns="http://www.w3.org/2000/svg">
<path d="M9.18401 29.664H19.936V36H0.976013V2.30401H9.18401V29.664Z" fill="#2B383F"/>
<path d="M36.043 36.384C33.419 36.384 31.051 35.824 28.939 34.704C26.859 33.584 25.211 31.984 23.995 29.904C22.811 27.824 22.219 25.392 22.219 22.608C22.219 19.856 22.827 17.44 24.043 15.36C25.259 13.248 26.923 11.632 29.035 10.512C31.147 9.39201 33.515 8.83201 36.139 8.83201C38.763 8.83201 41.131 9.39201 43.243 10.512C45.355 11.632 47.019 13.248 48.235 15.36C49.451 17.44 50.059 19.856 50.059 22.608C50.059 25.36 49.435 27.792 48.187 29.904C46.971 31.984 45.291 33.584 43.147 34.704C41.035 35.824 38.667 36.384 36.043 36.384ZM36.043 29.28C37.611 29.28 38.939 28.704 40.027 27.552C41.147 26.4 41.707 24.752 41.707 22.608C41.707 20.464 41.163 18.816 40.075 17.664C39.019 16.512 37.707 15.936 36.139 15.936C34.539 15.936 33.211 16.512 32.155 17.664C31.099 18.784 30.571 20.432 30.571 22.608C30.571 24.752 31.083 26.4 32.107 27.552C33.163 28.704 34.475 29.28 36.043 29.28Z" fill="#2B383F"/>
<path d="M62.6215 13.008C63.3895 11.76 64.4935 10.752 65.9335 9.98401C67.3735 9.21601 69.0215 8.83201 70.8775 8.83201C73.0855 8.83201 75.0855 9.39201 76.8775 10.512C78.6695 11.632 80.0775 13.232 81.1015 15.312C82.1575 17.392 82.6855 19.808 82.6855 22.56C82.6855 25.312 82.1575 27.744 81.1015 29.856C80.0775 31.936 78.6695 33.552 76.8775 34.704C75.0855 35.824 73.0855 36.384 70.8775 36.384C68.9895 36.384 67.3415 36.016 65.9335 35.28C64.5255 34.512 63.4215 33.504 62.6215 32.256V36H54.4135V0.480011H62.6215V13.008ZM74.3335 22.56C74.3335 20.512 73.7575 18.912 72.6055 17.76C71.4855 16.576 70.0935 15.984 68.4295 15.984C66.7975 15.984 65.4055 16.576 64.2535 17.76C63.1335 18.944 62.5735 20.56 62.5735 22.608C62.5735 24.656 63.1335 26.272 64.2535 27.456C65.4055 28.64 66.7975 29.232 68.4295 29.232C70.0615 29.232 71.4535 28.64 72.6055 27.456C73.7575 26.24 74.3335 24.608 74.3335 22.56Z" fill="#2B383F"/>
<path d="M99.1836 36.384C96.5596 36.384 94.1916 35.824 92.0796 34.704C89.9996 33.584 88.3516 31.984 87.1356 29.904C85.9516 27.824 85.3596 25.392 85.3596 22.608C85.3596 19.856 85.9676 17.44 87.1836 15.36C88.3996 13.248 90.0636 11.632 92.1756 10.512C94.2876 9.39201 96.6556 8.83201 99.2796 8.83201C101.904 8.83201 104.272 9.39201 106.384 10.512C108.496 11.632 110.16 13.248 111.376 15.36C112.592 17.44 113.2 19.856 113.2 22.608C113.2 25.36 112.576 27.792 111.328 29.904C110.112 31.984 108.432 33.584 106.288 34.704C104.176 35.824 101.808 36.384 99.1836 36.384ZM99.1836 29.28C100.752 29.28 102.08 28.704 103.168 27.552C104.288 26.4 104.848 24.752 104.848 22.608C104.848 20.464 104.304 18.816 103.216 17.664C102.16 16.512 100.848 15.936 99.2796 15.936C97.6796 15.936 96.3516 16.512 95.2956 17.664C94.2396 18.784 93.7116 20.432 93.7116 22.608C93.7116 24.752 94.2236 26.4 95.2476 27.552C96.3036 28.704 97.6156 29.28 99.1836 29.28Z" fill="#2B383F"/>
</svg>
